<?xml version="1.0" encoding="UTF-8" ?>
<!DOCTYPE svg PUBLIC "-//W3C//DTD SVG 1.1//EN" "http://www.w3.org/Graphics/SVG/1.1/DTD/svg11.dtd">
<svg width="365pt" height="423pt" viewBox="0 0 365 423" version="1.1" xmlns="http://www.w3.org/2000/svg">
<path fill="#3dd2c5" stroke="#3dd2c5" stroke-width="0.09375" opacity="1.00" d=" M 178.97 0.00 L 179.71 0.00 C 179.80 25.49 179.70 50.98 179.76 76.47 C 166.05 84.52 152.14 92.23 138.54 100.47 C 123.77 108.66 109.30 117.41 94.55 125.65 C 87.21 130.03 79.64 134.08 72.45 138.68 C 72.01 138.74 71.13 138.85 70.69 138.90 C 64.63 135.42 58.65 131.77 52.47 128.51 C 46.28 124.59 39.89 121.01 33.47 117.51 C 24.19 111.44 14.00 106.82 4.89 100.53 C 8.44 98.60 12.04 96.74 15.45 94.57 C 23.91 89.99 32.52 85.62 40.59 80.37 C 41.04 80.32 41.94 80.22 42.39 80.18 C 48.26 84.05 54.61 87.13 60.57 90.85 C 61.73 91.79 63.01 90.60 64.04 90.09 C 72.67 84.60 81.83 80.03 90.45 74.54 C 101.46 68.65 111.97 61.86 123.02 56.04 C 129.71 51.96 136.78 48.44 143.18 43.89 C 143.10 36.37 143.22 28.84 143.17 21.31 C 155.20 14.37 167.11 7.23 178.97 0.00 Z" />
<path fill="#3dd2c5" stroke="#3dd2c5" stroke-width="0.09375" opacity="1.00" d=" M 191.35 0.00 L 191.40 0.00 C 199.75 5.80 208.95 10.23 217.57 15.61 C 220.94 17.90 225.04 19.14 227.76 22.33 C 227.68 29.78 227.69 37.24 227.85 44.69 C 248.89 56.38 269.50 68.87 290.55 80.55 C 296.56 84.37 302.84 87.75 309.00 91.31 C 315.77 87.74 322.29 83.72 329.00 80.03 C 340.87 87.09 353.22 93.32 365.00 100.52 L 365.00 101.35 C 352.76 108.23 340.60 115.26 328.54 122.45 C 326.82 123.35 325.14 124.33 323.54 125.44 C 315.78 129.80 307.96 134.09 300.42 138.81 C 299.97 138.81 299.07 138.82 298.62 138.82 C 292.57 135.36 286.62 131.71 280.45 128.47 C 274.27 124.57 267.88 120.99 261.46 117.49 C 245.82 108.44 230.23 99.26 214.45 90.46 C 207.47 86.39 200.58 82.14 193.40 78.44 C 191.84 77.45 189.99 76.10 190.37 73.99 C 190.38 50.32 190.38 26.64 190.36 2.97 C 190.31 1.86 190.64 0.87 191.35 0.00 Z" />
<path fill="#3dd2c5" stroke="#3dd2c5" stroke-width="0.09375" opacity="1.00" d=" M 0.00 111.11 C 1.94 111.62 3.79 112.41 5.52 113.44 C 9.83 116.37 14.44 118.81 19.02 121.29 C 32.57 129.44 46.49 136.92 60.02 145.09 C 62.33 146.36 64.78 147.43 66.75 149.24 C 66.52 190.69 66.82 232.16 66.62 273.61 C 63.55 276.41 59.48 277.79 56.06 280.10 C 43.21 287.56 30.30 294.90 17.53 302.48 C 13.44 304.63 9.42 306.91 5.58 309.48 C 3.81 310.50 1.94 311.32 0.00 311.94 L 0.00 270.74 C 6.18 265.95 13.43 262.75 20.09 258.68 C 20.23 227.20 20.22 195.72 20.10 164.24 C 15.48 161.76 11.00 159.04 6.45 156.43 C 4.32 154.99 1.91 153.97 0.00 152.22 L 0.00 111.11 Z" />
<path fill="#3dd2c5" stroke="#3dd2c5" stroke-width="0.09375" opacity="1.00" d=" M 183.49 115.38 C 184.19 114.99 184.88 114.59 185.56 114.17 C 188.16 115.74 190.78 117.27 193.37 118.86 C 196.25 120.08 198.87 121.79 201.53 123.42 C 205.67 125.48 209.52 128.08 213.52 130.39 C 226.29 137.54 238.95 144.90 251.52 152.40 C 257.65 156.01 264.24 159.00 269.86 163.38 C 269.71 195.77 269.81 228.17 269.81 260.57 C 266.44 261.71 263.83 264.29 260.52 265.58 C 256.83 267.76 253.27 270.19 249.41 272.06 C 243.07 275.71 236.85 279.59 230.42 283.05 C 225.52 286.02 220.55 288.88 215.51 291.62 C 209.20 295.31 203.07 299.34 196.51 302.60 C 193.28 304.86 189.57 306.31 186.39 308.64 C 184.49 309.51 182.87 307.49 181.31 306.70 C 174.03 302.56 166.72 298.48 159.59 294.07 C 155.71 292.24 152.19 289.76 148.48 287.62 C 145.69 286.38 143.21 284.60 140.59 283.07 C 136.71 281.24 133.18 278.77 129.49 276.60 C 126.68 275.42 124.24 273.59 121.60 272.10 C 119.40 271.22 117.50 269.79 115.48 268.58 C 110.50 266.27 106.17 262.75 101.14 260.57 C 101.16 227.86 101.10 195.15 101.17 162.43 C 102.34 161.95 103.49 161.43 104.65 160.91 C 110.92 157.16 117.21 153.42 123.61 149.91 C 138.85 140.99 154.09 132.06 169.48 123.40 C 174.09 120.62 178.64 117.73 183.49 115.38 Z" />
<path fill="#3dd2c5" stroke="#3dd2c5" stroke-width="0.09375" opacity="1.00" d=" M 68.98 284.86 C 69.93 284.09 71.17 284.15 72.31 284.00 C 75.78 286.64 79.72 288.51 83.55 290.55 C 87.20 292.95 91.08 294.98 94.76 297.32 C 118.84 310.80 142.46 325.09 166.55 338.55 C 170.83 341.31 175.28 343.82 179.78 346.22 C 179.78 371.81 179.70 397.41 179.83 423.00 L 179.12 423.00 C 167.16 415.79 155.18 408.62 143.20 401.46 C 143.14 393.72 143.21 385.98 143.08 378.24 C 138.24 376.25 133.98 373.15 129.43 370.61 C 112.34 361.06 95.67 350.76 78.44 341.45 C 73.43 338.12 68.03 335.42 62.92 332.25 C 61.39 331.07 59.76 332.47 58.43 333.22 C 53.10 336.71 47.36 339.48 42.02 342.95 C 30.70 337.01 19.85 330.20 8.41 324.49 C 7.15 323.59 5.89 322.71 4.65 321.79 C 26.27 309.79 47.59 297.26 68.98 284.86 Z" />
<path fill="#3dd2c5" stroke="#3dd2c5" stroke-width="0.09375" opacity="1.00" d=" M 298.64 284.14 C 299.08 284.14 299.95 284.14 300.39 284.14 C 321.91 296.67 343.51 309.06 365.00 321.66 L 365.00 322.46 C 353.14 329.55 340.72 335.68 329.00 343.00 C 322.48 338.97 315.71 335.39 309.01 331.68 C 293.38 340.37 277.90 349.35 262.54 358.50 C 256.11 361.97 249.75 365.59 243.55 369.45 C 238.23 372.22 233.19 375.49 227.87 378.26 C 227.69 385.72 227.75 393.18 227.77 400.65 C 226.72 401.61 225.67 402.57 224.61 403.52 C 218.06 406.80 211.78 410.64 205.54 414.48 C 200.79 417.10 195.86 419.56 191.64 423.00 L 191.05 423.00 C 190.71 422.01 190.48 421.01 190.37 419.99 C 190.27 395.81 190.47 371.62 190.27 347.43 C 190.59 346.96 191.21 346.03 191.52 345.56 C 227.31 325.23 262.84 304.45 298.64 284.14 Z" />
</svg>
